# xmcd CD database file
#
# Track frame offsets:
#	150
#	18572
#	43849
#	64914
#	86136
#	108023
#	126115
#	143822
#	162041
#	176466
#	196383
#	211500
#
# Disc length: 3073 seconds
#
# Revision: 0
# Processed by: cddbd v1.5.1PL0 Copyright (c) Steve Scherf et al.
# Submitted via: CDex 1.51
#
DISCID=9e0bff0c
DTITLE=CROWD - CROWD Vorcal Collection
DYEAR=1900
DGENRE=Game
TTITLE0=そよ風の行方
TTITLE1=今、この時間が…
TTITLE2=Ride
TTITLE3=Take On Your Will
TTITLE4=悲しみの花
TTITLE5=たくさんの愛をプレゼント
TTITLE6=ふたりの関係(きょり)で…
TTITLE7=お熱な地球☆(ほし)
TTITLE8=奇跡の宝物
TTITLE9=La La Lu
TTITLE10=secret dream
TTITLE11=夜明けの色
EXTD=
EXTT0=
EXTT1=
EXTT2=
EXTT3=
EXTT4=
EXTT5=
EXTT6=
EXTT7=
EXTT8=
EXTT9=
EXTT10=
EXTT11=
PLAYORDER=
